<svg width="169" height="33" viewBox="0 0 169 33" fill="none" xmlns="http://www.w3.org/2000/svg">
<path d="M9.21484 0.71875L17.25 23.4062L25.2422 0.71875H33.707V32H27.2402V23.4492L27.8848 8.68945L19.4414 32H15.0156L6.59375 8.71094L7.23828 23.4492V32H0.792969V0.71875H9.21484ZM47.7578 0.71875L55.793 23.4062L63.7852 0.71875H72.25V32H65.7832V23.4492L66.4277 8.68945L57.9844 32H53.5586L45.1367 8.71094L45.7812 23.4492V32H39.3359V0.71875H47.7578ZM106.496 25.5547H95.1953L93.0469 32H86.1934L97.8379 0.71875H103.811L115.52 32H108.666L106.496 25.5547ZM96.9355 20.334H104.756L100.824 8.625L96.9355 20.334ZM131.096 14.5762C130.251 14.4616 129.506 14.4043 128.861 14.4043C126.512 14.4043 124.973 15.1992 124.242 16.7891V32H118.033V8.75391H123.898L124.07 11.5254C125.316 9.39128 127.042 8.32422 129.248 8.32422C129.936 8.32422 130.58 8.41732 131.182 8.60352L131.096 14.5762ZM142.611 3.03906V8.75391H146.586V13.3086H142.611V24.9102C142.611 25.7695 142.776 26.3854 143.105 26.7578C143.435 27.1302 144.065 27.3164 144.996 27.3164C145.684 27.3164 146.292 27.2663 146.822 27.166V31.8711C145.605 32.2435 144.352 32.4297 143.062 32.4297C138.708 32.4297 136.488 30.2311 136.402 25.834V13.3086H133.008V8.75391H136.402V3.03906H142.611ZM162.635 25.5762C162.635 24.8171 162.255 24.2227 161.496 23.793C160.751 23.349 159.548 22.9551 157.887 22.6113C152.358 21.4512 149.594 19.1022 149.594 15.5645C149.594 13.502 150.446 11.7832 152.15 10.4082C153.869 9.01888 156.111 8.32422 158.875 8.32422C161.826 8.32422 164.182 9.01888 165.943 10.4082C167.719 11.7975 168.607 13.6022 168.607 15.8223H162.398C162.398 14.9342 162.112 14.2038 161.539 13.6309C160.966 13.0436 160.071 12.75 158.854 12.75C157.808 12.75 156.999 12.9863 156.426 13.459C155.853 13.9316 155.566 14.5332 155.566 15.2637C155.566 15.9512 155.889 16.5098 156.533 16.9395C157.192 17.3548 158.295 17.7201 159.842 18.0352C161.389 18.3359 162.692 18.6797 163.752 19.0664C167.032 20.2695 168.672 22.3535 168.672 25.3184C168.672 27.4382 167.762 29.1569 165.943 30.4746C164.124 31.778 161.775 32.4297 158.896 32.4297C156.949 32.4297 155.215 32.0859 153.697 31.3984C152.193 30.6966 151.012 29.7441 150.152 28.541C149.293 27.3236 148.863 26.013 148.863 24.6094H154.75C154.807 25.7122 155.215 26.5573 155.975 27.1445C156.734 27.7318 157.751 28.0254 159.025 28.0254C160.214 28.0254 161.109 27.8034 161.711 27.3594C162.327 26.901 162.635 26.3066 162.635 25.5762Z" fill="black"/>
</svg>
