<svg width="389" height="408" viewBox="0 0 389 408" fill="none" xmlns="http://www.w3.org/2000/svg">
<mask id="path-1-inside-1" fill="white">
<path fill-rule="evenodd" clip-rule="evenodd" d="M157.212 381.357L135.307 389.755C119.836 395.687 102.929 387.792 97.5443 372.123L92.4476 357.293H79.372C62.8034 357.293 49.372 343.861 49.372 327.293V311.494L36.0392 306.381C20.5692 300.448 12.3946 282.937 17.7808 267.268L26.0021 243.353L8.25829 224.69C-2.71936 213.144 -2.75723 195.031 8.17203 183.439L26.1475 164.373L17.7774 140.018C12.3924 124.349 20.5684 106.839 36.039 100.908L49.372 95.7959V80.005C49.372 63.4364 62.8034 50.0049 79.372 50.0049H92.4671L97.5666 35.1706C102.953 19.502 119.86 11.6093 135.33 17.5419L156.816 25.7814L172.242 9.41993C184.05 -3.10388 203.952 -3.14552 215.812 9.3288L231.599 25.9332L253.493 17.5395C268.963 11.6083 285.87 19.5024 291.255 35.1715L296.353 50.0049H310.309C326.877 50.0049 340.309 63.4364 340.309 80.0049V96.148L352.777 100.93C368.247 106.862 376.422 124.373 371.036 140.042L362.818 163.948L380.561 182.61C391.539 194.156 391.577 212.27 380.648 223.862L362.659 242.941L371.022 267.277C376.407 282.946 368.231 300.456 352.76 306.387L340.309 311.161V327.293C340.309 343.861 326.877 357.293 310.309 357.293H296.354L291.25 372.14C285.864 387.808 268.957 395.701 253.486 389.769L231.996 381.527L216.577 397.88C204.77 410.404 184.868 410.446 173.008 397.971L157.212 381.357Z"/>
</mask>
<path fill-rule="evenodd" clip-rule="evenodd" d="M157.212 381.357L135.307 389.755C119.836 395.687 102.929 387.792 97.5443 372.123L92.4476 357.293H79.372C62.8034 357.293 49.372 343.861 49.372 327.293V311.494L36.0392 306.381C20.5692 300.448 12.3946 282.937 17.7808 267.268L26.0021 243.353L8.25829 224.69C-2.71936 213.144 -2.75723 195.031 8.17203 183.439L26.1475 164.373L17.7774 140.018C12.3924 124.349 20.5684 106.839 36.039 100.908L49.372 95.7959V80.005C49.372 63.4364 62.8034 50.0049 79.372 50.0049H92.4671L97.5666 35.1706C102.953 19.502 119.86 11.6093 135.33 17.5419L156.816 25.7814L172.242 9.41993C184.05 -3.10388 203.952 -3.14552 215.812 9.3288L231.599 25.9332L253.493 17.5395C268.963 11.6083 285.87 19.5024 291.255 35.1715L296.353 50.0049H310.309C326.877 50.0049 340.309 63.4364 340.309 80.0049V96.148L352.777 100.93C368.247 106.862 376.422 124.373 371.036 140.042L362.818 163.948L380.561 182.61C391.539 194.156 391.577 212.27 380.648 223.862L362.659 242.941L371.022 267.277C376.407 282.946 368.231 300.456 352.76 306.387L340.309 311.161V327.293C340.309 343.861 326.877 357.293 310.309 357.293H296.354L291.25 372.14C285.864 387.808 268.957 395.701 253.486 389.769L231.996 381.527L216.577 397.88C204.77 410.404 184.868 410.446 173.008 397.971L157.212 381.357Z" fill="#FFA100"/>
<path d="M157.212 381.357L171.706 367.577L162.512 357.906L150.052 362.683L157.212 381.357ZM135.307 389.755L128.147 371.081L128.147 371.081L135.307 389.755ZM97.5443 372.123L78.6301 378.624L78.6301 378.624L97.5443 372.123ZM92.4476 357.293L111.362 350.793L106.722 337.293H92.4476V357.293ZM49.372 311.494H69.372V297.743L56.5332 292.82L49.372 311.494ZM36.0392 306.381L43.2004 287.707L43.2004 287.707L36.0392 306.381ZM17.7808 267.268L-1.13284 260.767L-1.13284 260.767L17.7808 267.268ZM26.0021 243.353L44.9158 249.854L48.8631 238.372L40.4966 229.572L26.0021 243.353ZM8.25829 224.69L22.7528 210.909L22.7528 210.909L8.25829 224.69ZM8.17203 183.439L-6.37996 169.719L-6.37996 169.719L8.17203 183.439ZM26.1475 164.373L40.6994 178.093L48.9891 169.301L45.0617 157.873L26.1475 164.373ZM17.7774 140.018L-1.13685 146.518L17.7774 140.018ZM36.039 100.908L28.8795 82.2329L28.8795 82.2329L36.039 100.908ZM49.372 95.7959L56.5315 114.471L69.372 109.548V95.7959H49.372ZM92.4671 50.0049V70.0049H106.741L111.381 56.5067L92.4671 50.0049ZM97.5666 35.1706L78.6529 28.6688L78.6529 28.6688L97.5666 35.1706ZM135.33 17.5419L142.491 -1.13212L142.491 -1.13212L135.33 17.5419ZM156.816 25.7814L149.655 44.4554L162.172 49.2554L171.368 39.5015L156.816 25.7814ZM172.242 9.41993L157.69 -4.30012L157.69 -4.30011L172.242 9.41993ZM215.812 9.3288L201.317 23.1096L201.317 23.1096L215.812 9.3288ZM231.599 25.9332L217.104 39.714L226.299 49.3846L238.758 44.6079L231.599 25.9332ZM253.493 17.5395L260.652 36.2141L260.652 36.2141L253.493 17.5395ZM291.255 35.1715L310.169 28.6713L310.169 28.6713L291.255 35.1715ZM296.353 50.0049L277.439 56.5051L282.078 70.0049H296.353V50.0049ZM340.309 96.148H320.309V109.898L333.147 114.822L340.309 96.148ZM352.777 100.93L345.616 119.604L345.616 119.604L352.777 100.93ZM371.036 140.042L389.949 146.544L389.949 146.544L371.036 140.042ZM362.818 163.948L343.904 157.446L339.957 168.929L348.323 177.729L362.818 163.948ZM380.561 182.61L395.056 168.829L395.056 168.829L380.561 182.61ZM380.648 223.862L366.096 210.141L366.096 210.141L380.648 223.862ZM362.659 242.941L348.107 229.221L339.817 238.013L343.745 249.441L362.659 242.941ZM371.022 267.277L352.108 273.777L352.108 273.777L371.022 267.277ZM352.76 306.387L345.601 287.713L345.601 287.713L352.76 306.387ZM340.309 311.161L333.149 292.487L320.309 297.409V311.161H340.309ZM296.354 357.293V337.293H282.08L277.44 350.791L296.354 357.293ZM291.25 372.14L272.336 365.638L272.336 365.638L291.25 372.14ZM253.486 389.769L246.325 408.443L246.325 408.443L253.486 389.769ZM231.996 381.527L239.157 362.853L226.64 358.053L217.444 367.807L231.996 381.527ZM216.577 397.88L231.129 411.6L231.129 411.6L216.577 397.88ZM173.008 397.971L187.502 384.191L187.502 384.191L173.008 397.971ZM150.052 362.683L128.147 371.081L142.466 408.43L164.371 400.032L150.052 362.683ZM128.147 371.081C123.247 372.959 118.164 370.586 116.459 365.623L78.6301 378.624C87.6944 404.999 116.425 418.414 142.466 408.43L128.147 371.081ZM116.459 365.623L111.362 350.793L73.5334 363.793L78.6301 378.624L116.459 365.623ZM92.4476 337.293H79.372V377.293H92.4476V337.293ZM79.372 337.293C73.8491 337.293 69.372 332.816 69.372 327.293H29.372C29.372 354.907 51.7577 377.293 79.372 377.293V337.293ZM69.372 327.293V311.494H29.372V327.293H69.372ZM56.5332 292.82L43.2004 287.707L28.878 325.055L42.2108 330.168L56.5332 292.82ZM43.2004 287.707C37.7888 285.632 34.8104 279.251 36.6945 273.77L-1.13284 260.767C-10.0211 286.623 3.34961 315.265 28.878 325.055L43.2004 287.707ZM36.6945 273.77L44.9158 249.854L7.08842 236.851L-1.13284 260.767L36.6945 273.77ZM40.4966 229.572L22.7528 210.909L-6.23618 238.471L11.5076 257.134L40.4966 229.572ZM22.7528 210.909C19.0936 207.061 19.0809 201.023 22.724 197.159L-6.37996 169.719C-24.5954 189.039 -24.5323 219.227 -6.23618 238.471L22.7528 210.909ZM22.724 197.159L40.6994 178.093L11.5955 150.653L-6.37996 169.719L22.724 197.159ZM45.0617 157.873L36.6916 133.518L-1.13685 146.518L7.23324 170.874L45.0617 157.873ZM36.6916 133.518C34.8079 128.037 37.7868 121.657 43.1985 119.582L28.8795 82.2329C3.35013 92.0204 -10.023 120.661 -1.13685 146.518L36.6916 133.518ZM43.1985 119.582L56.5315 114.471L42.2124 77.1213L28.8795 82.2329L43.1985 119.582ZM69.372 95.7959V80.005H29.372V95.7959H69.372ZM69.372 80.005C69.372 74.4821 73.8491 70.0049 79.372 70.0049V30.0049C51.7577 30.0049 29.372 52.3907 29.372 80.005H69.372ZM79.372 70.0049H92.4671V30.0049H79.372V70.0049ZM111.381 56.5067L116.48 41.6723L78.6529 28.6688L73.5535 43.5032L111.381 56.5067ZM116.48 41.6723C118.186 36.7096 123.269 34.3368 128.169 36.2158L142.491 -1.13212C116.451 -11.1181 87.7194 2.29439 78.6529 28.6688L116.48 41.6723ZM128.169 36.2158L149.655 44.4554L163.977 7.10743L142.491 -1.13212L128.169 36.2158ZM171.368 39.5015L186.794 23.14L157.69 -4.30011L142.264 12.0614L171.368 39.5015ZM186.794 23.14C190.73 18.9654 197.364 18.9515 201.317 23.1096L230.306 -4.45199C210.54 -25.2425 177.37 -25.1731 157.69 -4.30012L186.794 23.14ZM201.317 23.1096L217.104 39.714L246.093 12.1525L230.306 -4.452L201.317 23.1096ZM238.758 44.6079L260.652 36.2141L246.333 -1.13516L224.439 7.25863L238.758 44.6079ZM260.652 36.2141C265.552 34.3354 270.635 36.7087 272.341 41.6717L310.169 28.6713C301.105 2.29611 272.374 -11.1188 246.333 -1.13516L260.652 36.2141ZM272.341 41.6717L277.439 56.5051L315.267 43.5047L310.169 28.6713L272.341 41.6717ZM296.353 70.0049H310.309V30.0049H296.353V70.0049ZM310.309 70.0049C315.831 70.0049 320.309 74.4821 320.309 80.0049H360.309C360.309 52.3907 337.923 30.0049 310.309 30.0049V70.0049ZM320.309 80.0049V96.148H360.309V80.0049H320.309ZM333.147 114.822L345.616 119.604L359.939 82.2557L347.47 77.474L333.147 114.822ZM345.616 119.604C351.028 121.679 354.006 128.059 352.122 133.54L389.949 146.544C398.838 120.688 385.467 92.0454 359.939 82.2557L345.616 119.604ZM352.122 133.54L343.904 157.446L381.732 170.45L389.949 146.544L352.122 133.54ZM348.323 177.729L366.067 196.391L395.056 168.829L377.312 150.167L348.323 177.729ZM366.067 196.391C369.726 200.24 369.739 206.277 366.096 210.141L395.2 237.582C413.415 218.262 413.352 188.073 395.056 168.829L366.067 196.391ZM366.096 210.141L348.107 229.221L377.211 256.661L395.2 237.582L366.096 210.141ZM343.745 249.441L352.108 273.777L389.936 260.777L381.573 236.441L343.745 249.441ZM352.108 273.777C353.992 279.258 351.013 285.638 345.601 287.713L359.92 325.062C385.449 315.274 398.822 286.633 389.936 260.777L352.108 273.777ZM345.601 287.713L333.149 292.487L347.468 329.836L359.92 325.062L345.601 287.713ZM320.309 311.161V327.293H360.309V311.161H320.309ZM320.309 327.293C320.309 332.816 315.831 337.293 310.309 337.293V377.293C337.923 377.293 360.309 354.907 360.309 327.293H320.309ZM310.309 337.293H296.354V377.293H310.309V337.293ZM277.44 350.791L272.336 365.638L310.164 378.642L315.267 363.795L277.44 350.791ZM272.336 365.638C270.63 370.601 265.548 372.974 260.648 371.095L246.325 408.443C272.365 418.429 301.097 405.016 310.164 378.642L272.336 365.638ZM260.648 371.095L239.157 362.853L224.835 400.201L246.325 408.443L260.648 371.095ZM217.444 367.807L202.025 384.16L231.129 411.6L246.548 395.247L217.444 367.807ZM202.025 384.16C198.09 388.335 191.456 388.349 187.502 384.191L158.513 411.752C178.28 432.543 211.45 432.473 231.129 411.6L202.025 384.16ZM187.502 384.191L171.706 367.577L142.717 395.138L158.513 411.752L187.502 384.191Z" fill="#4C3C85" mask="url(#path-1-inside-1)"/>
<path d="M127.03 213.125C127.051 214.354 127.124 215.333 127.249 216.062C127.374 216.792 127.561 217.365 127.811 217.781C128.061 218.198 128.374 218.49 128.749 218.656C129.145 218.823 129.634 218.948 130.218 219.031L131.561 219.219V221C131.103 220.938 130.551 220.865 129.905 220.781C129.363 220.74 128.697 220.698 127.905 220.656C127.113 220.594 126.197 220.562 125.155 220.562C124.093 220.562 122.926 220.594 121.655 220.656C120.384 220.719 118.968 220.833 117.405 221V219.219C117.947 219.177 118.426 219.135 118.843 219.094C119.259 219.052 119.645 219.01 119.999 218.969C120.353 218.927 120.697 218.896 121.03 218.875C121.363 218.854 121.718 218.833 122.093 218.812L121.968 186.75H121.374L105.436 219.281H103.968L89.9676 186.625H89.4363L87.5301 210.688C87.4884 211 87.4571 211.365 87.4363 211.781C87.4155 212.177 87.3842 212.583 87.3426 213C87.3217 213.396 87.3009 213.771 87.2801 214.125C87.2801 214.479 87.2801 214.76 87.2801 214.969C87.2801 215.781 87.353 216.438 87.4988 216.938C87.6446 217.417 87.8426 217.802 88.0926 218.094C88.3634 218.385 88.6863 218.604 89.0613 218.75C89.4571 218.875 89.9051 218.969 90.4051 219.031L91.7488 219.219V221C91.4155 220.938 90.978 220.865 90.4363 220.781C89.978 220.74 89.4051 220.698 88.7176 220.656C88.0301 220.594 87.2071 220.562 86.2488 220.562C85.2905 220.562 84.1967 220.594 82.9676 220.656C81.7592 220.719 80.3738 220.833 78.8113 221V219.219C79.353 219.177 79.8321 219.135 80.2488 219.094C80.6655 219.052 81.0509 219.01 81.4051 218.969C81.7592 218.927 82.103 218.896 82.4363 218.875C82.7696 218.854 83.1238 218.833 83.4988 218.812L88.0301 177.688L90.9988 176.656L106.093 211.531H106.53L122.999 177.344L126.124 176.719L127.03 213.125ZM182.343 213.125C182.363 214.354 182.436 215.333 182.561 216.062C182.686 216.792 182.874 217.365 183.124 217.781C183.374 218.198 183.686 218.49 184.061 218.656C184.457 218.823 184.947 218.948 185.53 219.031L186.874 219.219V221C186.415 220.938 185.863 220.865 185.218 220.781C184.676 220.74 184.009 220.698 183.218 220.656C182.426 220.594 181.509 220.562 180.468 220.562C179.405 220.562 178.238 220.594 176.968 220.656C175.697 220.719 174.28 220.833 172.718 221V219.219C173.259 219.177 173.738 219.135 174.155 219.094C174.572 219.052 174.957 219.01 175.311 218.969C175.665 218.927 176.009 218.896 176.343 218.875C176.676 218.854 177.03 218.833 177.405 218.812L177.28 186.75H176.686L160.749 219.281H159.28L145.28 186.625H144.749L142.843 210.688C142.801 211 142.77 211.365 142.749 211.781C142.728 212.177 142.697 212.583 142.655 213C142.634 213.396 142.613 213.771 142.593 214.125C142.593 214.479 142.593 214.76 142.593 214.969C142.593 215.781 142.665 216.438 142.811 216.938C142.957 217.417 143.155 217.802 143.405 218.094C143.676 218.385 143.999 218.604 144.374 218.75C144.77 218.875 145.218 218.969 145.718 219.031L147.061 219.219V221C146.728 220.938 146.29 220.865 145.749 220.781C145.29 220.74 144.718 220.698 144.03 220.656C143.343 220.594 142.52 220.562 141.561 220.562C140.603 220.562 139.509 220.594 138.28 220.656C137.072 220.719 135.686 220.833 134.124 221V219.219C134.665 219.177 135.145 219.135 135.561 219.094C135.978 219.052 136.363 219.01 136.718 218.969C137.072 218.927 137.415 218.896 137.749 218.875C138.082 218.854 138.436 218.833 138.811 218.812L143.343 177.688L146.311 176.656L161.405 211.531H161.843L178.311 177.344L181.436 176.719L182.343 213.125ZM221.686 184.469L215.093 203.656H227.843L222.593 184.469H221.686ZM224.436 175.938L234.999 210.125C235.77 212.667 236.613 214.719 237.53 216.281C238.447 217.823 239.593 218.708 240.968 218.938L242.686 219.219L242.624 221C241.561 220.875 240.405 220.781 239.155 220.719C237.926 220.656 236.665 220.625 235.374 220.625C233.999 220.625 232.655 220.656 231.343 220.719C230.03 220.781 228.78 220.875 227.593 221L227.655 219.219L232.061 218.812L228.468 205.844H227.249C226.686 205.844 225.947 205.854 225.03 205.875C224.113 205.875 223.072 205.896 221.905 205.938C220.759 205.979 219.52 206.042 218.186 206.125C216.853 206.208 215.478 206.323 214.061 206.469L212.343 211.281C211.968 212.281 211.634 213.229 211.343 214.125C211.072 215.021 210.936 215.802 210.936 216.469C210.936 217.135 211.113 217.688 211.468 218.125C211.822 218.542 212.436 218.812 213.311 218.938L215.155 219.219L215.093 221C213.968 220.875 212.884 220.771 211.843 220.688C210.822 220.604 209.749 220.562 208.624 220.562C207.499 220.562 206.332 220.604 205.124 220.688C203.915 220.771 202.572 220.875 201.093 221L201.155 219.219C201.759 219.156 202.332 219.094 202.874 219.031C203.353 218.99 203.832 218.948 204.311 218.906C204.79 218.865 205.186 218.833 205.499 218.812C206.353 217.021 207.238 215.062 208.155 212.938C209.093 210.812 210.04 208.583 210.999 206.25C211.978 203.917 212.947 201.5 213.905 199C214.884 196.5 215.843 193.99 216.78 191.469C217.718 188.948 218.613 186.438 219.468 183.938C220.343 181.438 221.165 179.01 221.936 176.656L224.436 175.938ZM253.405 192.969C253.322 193.365 253.228 193.823 253.124 194.344C253.04 194.844 252.947 195.365 252.843 195.906C252.759 196.448 252.676 196.99 252.593 197.531C252.509 198.052 252.436 198.531 252.374 198.969C253.457 197.865 254.509 196.938 255.53 196.188C256.551 195.417 257.499 194.792 258.374 194.312C259.249 193.833 260.03 193.49 260.718 193.281C261.426 193.073 262.02 192.969 262.499 192.969C263.082 192.969 263.561 193.052 263.936 193.219C264.311 193.365 264.603 193.562 264.811 193.812C265.04 194.042 265.197 194.302 265.28 194.594C265.384 194.885 265.436 195.156 265.436 195.406C265.436 196.01 265.27 196.594 264.936 197.156C264.624 197.719 264.259 198.219 263.843 198.656C263.322 198.052 262.749 197.625 262.124 197.375C261.499 197.125 260.832 197 260.124 197C259.52 197 258.895 197.094 258.249 197.281C257.624 197.448 256.999 197.688 256.374 198C255.749 198.312 255.124 198.688 254.499 199.125C253.895 199.542 253.332 200.01 252.811 200.531C252.686 202.635 252.54 204.688 252.374 206.688C252.228 208.688 252.155 210.771 252.155 212.938C252.155 214.354 252.197 215.5 252.28 216.375C252.363 217.229 252.54 217.896 252.811 218.375C253.082 218.833 253.478 219.146 253.999 219.312C254.54 219.458 255.27 219.531 256.186 219.531H257.593V221H256.999C255.04 221 253.29 221.073 251.749 221.219C250.207 221.365 248.686 221.635 247.186 222.031C247.686 218.677 248.082 215.323 248.374 211.969C248.665 208.594 248.811 205.292 248.811 202.062C248.811 201.062 248.749 200.198 248.624 199.469C248.52 198.719 248.29 198.094 247.936 197.594C247.582 197.094 247.072 196.719 246.405 196.469C245.738 196.219 244.863 196.094 243.78 196.094H243.093V194.625C244.093 194.542 244.978 194.479 245.749 194.438C246.52 194.375 247.28 194.302 248.03 194.219C248.801 194.115 249.603 193.969 250.436 193.781C251.29 193.594 252.28 193.323 253.405 192.969ZM271.811 193.594C271.853 192.219 271.895 190.802 271.936 189.344C271.999 187.865 272.03 186.323 272.03 184.719L276.686 183.688C276.499 185.042 276.332 186.573 276.186 188.281C276.061 189.969 275.936 191.74 275.811 193.594C277.874 193.594 279.624 193.531 281.061 193.406C282.52 193.281 283.728 193.135 284.686 192.969L283.28 195.969H281.249C280.249 195.969 279.301 195.969 278.405 195.969C277.509 195.969 276.572 195.948 275.593 195.906C275.488 197.302 275.395 198.688 275.311 200.062C275.228 201.417 275.155 202.729 275.093 204C275.03 205.25 274.978 206.427 274.936 207.531C274.915 208.635 274.905 209.604 274.905 210.438C274.905 211.792 274.968 212.938 275.093 213.875C275.238 214.812 275.468 215.573 275.78 216.156C276.093 216.74 276.509 217.167 277.03 217.438C277.551 217.688 278.207 217.812 278.999 217.812C279.895 217.812 280.853 217.552 281.874 217.031C282.895 216.49 283.79 215.719 284.561 214.719L285.593 215.875C284.905 216.688 284.197 217.448 283.468 218.156C282.738 218.844 281.978 219.448 281.186 219.969C280.415 220.469 279.624 220.865 278.811 221.156C277.999 221.469 277.165 221.625 276.311 221.625C275.186 221.625 274.259 221.417 273.53 221C272.822 220.604 272.259 220.052 271.843 219.344C271.426 218.635 271.134 217.802 270.968 216.844C270.822 215.885 270.749 214.844 270.749 213.719C270.749 211.552 270.863 208.99 271.093 206.031C271.322 203.052 271.54 199.615 271.749 195.719C270.874 195.656 269.999 195.583 269.124 195.5C268.249 195.396 267.301 195.26 266.28 195.094L266.405 193.594H271.811ZM303.093 201.281C303.155 200.927 303.207 200.583 303.249 200.25C303.311 199.896 303.343 199.562 303.343 199.25C303.343 197.896 302.988 196.812 302.28 196C301.593 195.167 300.499 194.75 298.999 194.75C298.165 194.75 297.415 194.875 296.749 195.125C296.082 195.354 295.509 195.677 295.03 196.094C294.572 196.49 294.218 196.969 293.968 197.531C293.718 198.073 293.593 198.646 293.593 199.25C293.593 200.167 293.801 200.938 294.218 201.562C294.655 202.167 295.207 202.698 295.874 203.156C296.54 203.615 297.28 204.031 298.093 204.406C298.905 204.781 299.707 205.177 300.499 205.594C301.27 206.01 302.051 206.458 302.843 206.938C303.655 207.396 304.384 207.938 305.03 208.562C305.697 209.188 306.228 209.906 306.624 210.719C307.04 211.531 307.249 212.479 307.249 213.562C307.249 214.542 307.051 215.51 306.655 216.469C306.259 217.427 305.624 218.292 304.749 219.062C303.874 219.833 302.738 220.458 301.343 220.938C299.947 221.396 298.259 221.625 296.28 221.625C295.093 221.625 293.999 221.521 292.999 221.312C292.02 221.104 291.176 220.802 290.468 220.406C289.759 220.01 289.207 219.521 288.811 218.938C288.415 218.354 288.218 217.698 288.218 216.969C288.218 215.844 288.593 214.958 289.343 214.312C290.093 213.646 291.04 213.292 292.186 213.25V213.844C292.186 215.74 292.707 217.24 293.749 218.344C294.811 219.427 296.218 219.969 297.968 219.969C298.613 219.969 299.249 219.865 299.874 219.656C300.499 219.448 301.061 219.135 301.561 218.719C302.061 218.302 302.457 217.771 302.749 217.125C303.061 216.458 303.218 215.677 303.218 214.781C303.218 213.885 302.988 213.104 302.53 212.438C302.072 211.771 301.488 211.188 300.78 210.688C300.093 210.188 299.343 209.75 298.53 209.375C297.718 208.979 296.957 208.604 296.249 208.25L295.155 207.688C294.343 207.271 293.603 206.854 292.936 206.438C292.29 206.021 291.738 205.562 291.28 205.062C290.822 204.542 290.468 203.948 290.218 203.281C289.968 202.594 289.843 201.781 289.843 200.844C289.843 199.76 289.999 198.823 290.311 198.031C290.645 197.219 291.082 196.521 291.624 195.938C292.165 195.354 292.79 194.875 293.499 194.5C294.207 194.104 294.936 193.802 295.686 193.594C296.436 193.365 297.186 193.208 297.936 193.125C298.686 193.021 299.374 192.969 299.999 192.969C300.957 192.969 301.884 193.062 302.78 193.25C303.697 193.417 304.509 193.688 305.218 194.062C305.926 194.438 306.488 194.927 306.905 195.531C307.343 196.135 307.561 196.865 307.561 197.719C307.561 198.177 307.468 198.625 307.28 199.062C307.093 199.479 306.811 199.854 306.436 200.188C306.082 200.521 305.624 200.792 305.061 201C304.499 201.188 303.843 201.281 303.093 201.281Z" fill="white"/>
</svg>
